<svg xmlns="http://www.w3.org/2000/svg" xmlns:xlink="http://www.w3.org/1999/xlink" contentStyleType="text/css" data-diagram-type="DESCRIPTION" height="1021px" preserveAspectRatio="none" style="width:1351px;height:1021px;background:#FFFFFF;" version="1.1" viewBox="0 0 1351 1021" width="1351px" zoomAndPan="magnify"><?plantuml 1.2026.3beta4?><defs/><g><!--cluster tasks--><g class="cluster" data-qualified-name="tasks" data-source-line="18" id="ent0002"><rect fill="#E9EEF3" height="227" rx="9" ry="9" style="stroke:#64748B;stroke-width:1;" width="444.73" x="7" y="780"/><text fill="#1E293B" font-family="sans-serif" font-size="14" font-weight="700" lengthAdjust="spacing" textLength="189.5537" x="134.5881" y="794.9951">Cognitive Task Domains</text></g><!--cluster signals--><g class="cluster" data-qualified-name="signals" data-source-line="25" id="ent0007"><rect fill="#DDF3F0" height="194" rx="9" ry="9" style="stroke:#64748B;stroke-width:1;" width="507.11" x="225.48" y="546"/><text fill="#1E293B" font-family="sans-serif" font-size="14" font-weight="700" lengthAdjust="spacing" textLength="205.9395" x="376.0653" y="560.9951">Behavioral Signal Capture</text></g><!--cluster biomarkers--><g class="cluster" data-qualified-name="biomarkers" data-source-line="32" id="ent0012"><rect fill="#F7ECD2" height="265" rx="9" ry="9" style="stroke:#64748B;stroke-width:1;" width="560.29" x="491.73" y="241"/><text fill="#1E293B" font-family="sans-serif" font-size="14" font-weight="700" lengthAdjust="spacing" textLength="224.6768" x="659.5366" y="255.9951">Digital Biomarker Extraction</text></g><!--cluster clinical--><g class="cluster" data-qualified-name="clinical" data-source-line="40" id="ent0018"><rect fill="#EEF2F7" height="194" rx="9" ry="9" style="stroke:#64748B;stroke-width:1;" width="559.79" x="772.59" y="546"/><text fill="#1E293B" font-family="sans-serif" font-size="14" font-weight="700" lengthAdjust="spacing" textLength="248.6299" x="928.1701" y="560.9951">Clinical Monitoring &amp; Reporting</text></g><!--cluster context--><g class="cluster" data-qualified-name="context" data-source-line="47" id="ent0023"><rect fill="#F1F5F9" height="194" rx="9" ry="9" style="stroke:#64748B;stroke-width:1;" width="507.31" x="830.39" y="7"/><text fill="#1E293B" font-family="sans-serif" font-size="14" font-weight="700" lengthAdjust="spacing" textLength="182.335" x="992.8775" y="21.9951">Session Context Inputs</text></g><!--entity Processing Speed\nSDMT-like tasks--><g class="entity" data-qualified-name="tasks.Processing Speed.nSDMT-like tasks" data-source-line="19" id="ent0003"><rect fill="#F1F1F1" height="52.5938" rx="9" ry="9" style="stroke:#64748B;stroke-width:0.5;" width="143.6484" x="37.05" y="930.7"/><text fill="#1E293B" font-family="sans-serif" font-size="14" lengthAdjust="spacing" textLength="123.6484" x="47.05" y="953.6951">Processing Speed</text><text fill="#1E293B" font-family="sans-serif" font-size="14" lengthAdjust="spacing" textLength="111.0635" x="53.3425" y="969.992">SDMT-like tasks</text></g><!--entity Working Memory\nDigit Span / N-Back--><g class="entity" data-qualified-name="tasks.Working Memory.nDigit Span . N-Back" data-source-line="20" id="ent0004"><rect fill="#F1F1F1" height="52.5938" rx="9" ry="9" style="stroke:#64748B;stroke-width:0.5;" width="155.7412" x="31" y="842.7"/><text fill="#1E293B" font-family="sans-serif" font-size="14" lengthAdjust="spacing" textLength="119.3076" x="49.2168" y="865.6951">Working Memory</text><text fill="#1E293B" font-family="sans-serif" font-size="14" lengthAdjust="spacing" textLength="135.7412" x="41" y="881.992">Digit Span / N-Back</text></g><!--entity Attention Control\nStroop / Go-NoGo--><g class="entity" data-qualified-name="tasks.Attention Control.nStroop . Go-NoGo" data-source-line="21" id="ent0005"><rect fill="#F1F1F1" height="52.5938" rx="9" ry="9" style="stroke:#64748B;stroke-width:0.5;" width="142.6846" x="265.89" y="930.7"/><text fill="#1E293B" font-family="sans-serif" font-size="14" lengthAdjust="spacing" textLength="120.2236" x="277.1205" y="953.6951">Attention Control</text><text fill="#1E293B" font-family="sans-serif" font-size="14" lengthAdjust="spacing" textLength="122.6846" x="275.89" y="969.992">Stroop / Go-NoGo</text></g><!--entity Reaction Time\nresponse latency tasks--><g class="entity" data-qualified-name="tasks.Reaction Time.nresponse latency tasks" data-source-line="22" id="ent0006"><rect fill="#F1F1F1" height="52.5938" rx="9" ry="9" style="stroke:#64748B;stroke-width:0.5;" width="180.9863" x="246.74" y="842.7"/><text fill="#1E293B" font-family="sans-serif" font-size="14" lengthAdjust="spacing" textLength="100.5771" x="286.9446" y="865.6951">Reaction Time</text><text fill="#1E293B" font-family="sans-serif" font-size="14" lengthAdjust="spacing" textLength="160.9863" x="256.74" y="881.992">response latency tasks</text></g><!--entity Response Time--><g class="entity" data-qualified-name="signals.Response Time" data-source-line="26" id="ent0008"><rect fill="#F1F1F1" height="36.2969" rx="9" ry="9" style="stroke:#64748B;stroke-width:0.5;" width="127.0098" x="273.73" y="679.85"/><text fill="#1E293B" font-family="sans-serif" font-size="14" lengthAdjust="spacing" textLength="107.0098" x="283.73" y="702.8451">Response Time</text></g><!--entity Accuracy & Error Rate--><g class="entity" data-qualified-name="signals.Accuracy . Error Rate" data-source-line="27" id="ent0009"><rect fill="#F1F1F1" height="36.2969" rx="9" ry="9" style="stroke:#64748B;stroke-width:0.5;" width="175.5176" x="249.48" y="608.85"/><text fill="#1E293B" font-family="sans-serif" font-size="14" lengthAdjust="spacing" textLength="155.5176" x="259.48" y="631.8451">Accuracy &amp; Error Rate</text></g><!--entity Response Variability--><g class="entity" data-qualified-name="signals.Response Variability" data-source-line="28" id="ent0010"><rect fill="#F1F1F1" height="36.2969" rx="9" ry="9" style="stroke:#64748B;stroke-width:0.5;" width="163.0283" x="538.92" y="679.85"/><text fill="#1E293B" font-family="sans-serif" font-size="14" lengthAdjust="spacing" textLength="143.0283" x="548.92" y="702.8451">Response Variability</text></g><!--entity Task Completion Time--><g class="entity" data-qualified-name="signals.Task Completion Time" data-source-line="29" id="ent0011"><rect fill="#F1F1F1" height="36.2969" rx="9" ry="9" style="stroke:#64748B;stroke-width:0.5;" width="176.3105" x="532.28" y="608.85"/><text fill="#1E293B" font-family="sans-serif" font-size="14" lengthAdjust="spacing" textLength="156.3105" x="542.28" y="631.8451">Task Completion Time</text></g><!--entity Processing Speed Index--><g class="entity" data-qualified-name="biomarkers.Processing Speed Index" data-source-line="33" id="ent0013"><rect fill="#F1F1F1" height="36.2969" rx="9" ry="9" style="stroke:#64748B;stroke-width:0.5;" width="186.8857" x="526.99" y="445.85"/><text fill="#1E293B" font-family="sans-serif" font-size="14" lengthAdjust="spacing" textLength="166.8857" x="536.99" y="468.8451">Processing Speed Index</text></g><!--entity Attention Stability Score--><g class="entity" data-qualified-name="biomarkers.Attention Stability Score" data-source-line="34" id="ent0014"><rect fill="#F1F1F1" height="36.2969" rx="9" ry="9" style="stroke:#64748B;stroke-width:0.5;" width="190.5635" x="525.15" y="374.85"/><text fill="#1E293B" font-family="sans-serif" font-size="14" lengthAdjust="spacing" textLength="170.5635" x="535.15" y="397.8451">Attention Stability Score</text></g><!--entity Cognitive Fatigue Indicator--><g class="entity" data-qualified-name="biomarkers.Cognitive Fatigue Indicator" data-source-line="35" id="ent0015"><rect fill="#F1F1F1" height="36.2969" rx="9" ry="9" style="stroke:#64748B;stroke-width:0.5;" width="209.417" x="515.73" y="303.85"/><text fill="#1E293B" font-family="sans-serif" font-size="14" lengthAdjust="spacing" textLength="189.417" x="525.73" y="326.8451">Cognitive Fatigue Indicator</text></g><!--entity Reaction Variability Marker--><g class="entity" data-qualified-name="biomarkers.Reaction Variability Marker" data-source-line="36" id="ent0016"><rect fill="#F1F1F1" height="36.2969" rx="9" ry="9" style="stroke:#64748B;stroke-width:0.5;" width="209.9365" x="806.44" y="445.85"/><text fill="#1E293B" font-family="sans-serif" font-size="14" lengthAdjust="spacing" textLength="189.9365" x="816.44" y="468.8451">Reaction Variability Marker</text></g><!--entity Working Memory Performance--><g class="entity" data-qualified-name="biomarkers.Working Memory Performance" data-source-line="37" id="ent0017"><rect fill="#F1F1F1" height="36.2969" rx="9" ry="9" style="stroke:#64748B;stroke-width:0.5;" width="233.2197" x="794.8" y="374.85"/><text fill="#1E293B" font-family="sans-serif" font-size="14" lengthAdjust="spacing" textLength="213.2197" x="804.8" y="397.8451">Working Memory Performance</text></g><!--entity Longitudinal Cognitive Trends--><g class="entity" data-qualified-name="clinical.Longitudinal Cognitive Trends" data-source-line="41" id="ent0019"><rect fill="#F1F1F1" height="36.2969" rx="9" ry="9" style="stroke:#64748B;stroke-width:0.5;" width="229.6377" x="796.59" y="679.85"/><text fill="#1E293B" font-family="sans-serif" font-size="14" lengthAdjust="spacing" textLength="209.6377" x="806.59" y="702.8451">Longitudinal Cognitive Trends</text></g><!--entity Progress Reports--><g class="entity" data-qualified-name="clinical.Progress Reports" data-source-line="42" id="ent0020"><rect fill="#F1F1F1" height="36.2969" rx="9" ry="9" style="stroke:#64748B;stroke-width:0.5;" width="139.3896" x="841.72" y="608.85"/><text fill="#1E293B" font-family="sans-serif" font-size="14" lengthAdjust="spacing" textLength="119.3896" x="851.72" y="631.8451">Progress Reports</text></g><!--entity Risk Alerts for Decline--><g class="entity" data-qualified-name="clinical.Risk Alerts for Decline" data-source-line="43" id="ent0021"><rect fill="#F1F1F1" height="36.2969" rx="9" ry="9" style="stroke:#64748B;stroke-width:0.5;" width="174.5947" x="1113.56" y="679.85"/><text fill="#1E293B" font-family="sans-serif" font-size="14" lengthAdjust="spacing" textLength="154.5947" x="1123.56" y="702.8451">Risk Alerts for Decline</text></g><!--entity Clinician Dashboard Review--><g class="entity" data-qualified-name="clinical.Clinician Dashboard Review" data-source-line="44" id="ent0022"><rect fill="#F1F1F1" height="36.2969" rx="9" ry="9" style="stroke:#64748B;stroke-width:0.5;" width="215.0361" x="1093.34" y="608.85"/><text fill="#1E293B" font-family="sans-serif" font-size="14" lengthAdjust="spacing" textLength="195.0361" x="1103.34" y="631.8451">Clinician Dashboard Review</text></g><!--entity Sleep Quality--><g class="entity" data-qualified-name="context.Sleep Quality" data-source-line="48" id="ent0024"><rect fill="#F1F1F1" height="36.2969" rx="9" ry="9" style="stroke:#64748B;stroke-width:0.5;" width="113.3652" x="854.73" y="140.85"/><text fill="#1E293B" font-family="sans-serif" font-size="14" lengthAdjust="spacing" textLength="93.3652" x="864.73" y="163.8451">Sleep Quality</text></g><!--entity Fatigue Level--><g class="entity" data-qualified-name="context.Fatigue Level" data-source-line="49" id="ent0025"><rect fill="#F1F1F1" height="36.2969" rx="9" ry="9" style="stroke:#64748B;stroke-width:0.5;" width="114.0352" x="854.39" y="69.85"/><text fill="#1E293B" font-family="sans-serif" font-size="14" lengthAdjust="spacing" textLength="94.0352" x="864.39" y="92.8451">Fatigue Level</text></g><!--entity Stress / Mood State--><g class="entity" data-qualified-name="context.Stress . Mood State" data-source-line="50" id="ent0026"><rect fill="#F1F1F1" height="36.2969" rx="9" ry="9" style="stroke:#64748B;stroke-width:0.5;" width="156.5547" x="1122.58" y="140.85"/><text fill="#1E293B" font-family="sans-serif" font-size="14" lengthAdjust="spacing" textLength="136.5547" x="1132.58" y="163.8451">Stress / Mood State</text></g><!--entity Medication & Session Factors--><g class="entity" data-qualified-name="context.Medication . Session Factors" data-source-line="51" id="ent0027"><rect fill="#F1F1F1" height="36.2969" rx="9" ry="9" style="stroke:#64748B;stroke-width:0.5;" width="225.6797" x="1088.02" y="69.85"/><text fill="#1E293B" font-family="sans-serif" font-size="14" lengthAdjust="spacing" textLength="205.6797" x="1098.02" y="92.8451">Medication &amp; Session Factors</text></g><!--link tasks to signals--><g class="link" data-entity-1="ent0002" data-entity-2="ent0007" data-link-type="dependency" data-source-line="54" id="lnk28"><path d="M114.1927,779.551 C114.2392,779.3076 114.2861,779.0629 114.3334,778.8169 C114.4281,778.325 114.5245,777.8279 114.6228,777.3258 C114.8192,776.3216 115.0228,775.2974 115.2338,774.254 C115.6557,772.1672 116.1071,770.0036 116.5894,767.7703 C117.5539,763.3036 118.6421,758.5578 119.8661,753.5884 C122.3142,743.6496 125.3056,732.8166 128.9375,721.5338 C143.465,676.4025 168.24,624.075 209.48,593 C212.2819,590.8881 215.2188,588.9604 218.2635,587.2021 C219.7859,586.323 221.3352,585.4862 222.9081,584.69 C223.6945,584.2919 219.0649,586.4734 219.8627,586.0953" fill="none" id="tasks-to-signals" style="stroke:#5F6B7A;stroke-width:1.4;"/><polygon fill="#5F6B7A" points="225.2846,583.5259,215.4387,583.7654,220.7663,585.6671,218.8647,590.9947,225.2846,583.5259" style="stroke:#5F6B7A;stroke-width:1.4;"/></g><!--link signals to biomarkers--><g class="link" data-entity-1="ent0007" data-entity-2="ent0012" data-link-type="dependency" data-source-line="55" id="lnk29"><path d="M342.6947,545.481 C342.7494,545.1917 342.8047,544.9005 342.8606,544.6073 C343.3076,542.2623 343.7916,539.7962 344.3145,537.2184 C348.4978,516.5963 355.1706,488.8262 365.3162,458.7 C385.6075,398.4475 419.79,328.77 475.73,288 C478.9363,285.6631 482.2919,283.5381 485.7665,281.6077 C487.5038,280.6425 483.8728,282.3454 485.6657,281.4753" fill="none" id="signals-to-biomarkers" style="stroke:#5F6B7A;stroke-width:1.4;"/><polygon fill="#5F6B7A" points="491.0637,278.8558,481.2204,279.1864,486.5653,281.0388,484.713,286.3838,491.0637,278.8558" style="stroke:#5F6B7A;stroke-width:1.4;"/></g><!--link biomarkers to clinical--><g class="link" data-entity-1="ent0012" data-entity-2="ent0018" data-link-type="dependency" data-source-line="56" id="lnk30"><path d="M762.7728,506.4891 C763.506,507.396 764.2539,508.291 765.0159,509.1742 C768.064,512.7068 771.3373,516.0505 774.7932,519.215 C781.705,525.5438 789.3471,531.1555 797.3786,536.1266 C801.3943,538.6121 805.5074,540.9375 809.6752,543.1124 C810.7171,543.6561 811.7625,544.1904 812.8106,544.7154 C813.3347,544.978 813.8594,545.2382 814.3848,545.4961 C814.6475,545.625 814.9103,545.7534 815.1732,545.8812 C815.239,545.9132 809.9058,543.3276 809.9715,543.3595" fill="none" id="biomarkers-to-clinical" style="stroke:#5F6B7A;stroke-width:1.4;"/><polygon fill="#5F6B7A" points="815.3705,545.977,809.0171,538.4514,810.8714,543.7957,805.5271,545.6501,815.3705,545.977" style="stroke:#5F6B7A;stroke-width:1.4;"/></g><!--reverse link biomarkers to context--><g class="link" data-entity-1="ent0012" data-entity-2="ent0023" data-link-type="dependency" data-source-line="57" id="lnk32"><path d="M631.955,235.2199 C637.39,219.6063 643.52,204.2706 654.5,181.5513 C676.46,136.1125 709.93,83.805 756.59,54 C770.8875,44.8675 787.4638,39.0188 804.3313,35.3906 C812.765,33.5766 821.2716,32.3177 829.6025,31.481 C829.8628,31.4549 830.123,31.4291 830.383,31.4038" fill="none" id="biomarkers-backto-context" style="stroke:#5F6B7A;stroke-width:1.4;"/><polygon fill="#5F6B7A" points="629.9825,240.8864,636.7189,233.7016,631.6262,236.1643,629.1635,231.0717,629.9825,240.8864" style="stroke:#5F6B7A;stroke-width:1.4;"/></g><?plantuml-src VLHDRzf04BtxLun0oescv8laKWamZYg5ACMelN1PxC6iM7QiyHg2glptZcqSR9A60xRcyxrvCpQuSk08M2Th1x5cZ9mcwtdPHjjKiTh2KaMRX2ctyPWCCUpNsc73dwrLJ7jj4rWfapKzGsRQLqdTs-1kD1YUE-Th7MqiPXdqlzqqd36kL6xS75_TqEZ4Rj4wYEGFkH6L2ZALOEWE1g50hcnYi8dztGX_lH5nZ7o4StSpkBaVUG5PTxJq9rSFroDlLX5bYmpzU-_Daz-fIcTCYTLExn3cAjk0JrkbRTO1bO4JGmRToSDa4bnBlqRM2rCa98iPXIbYlB2XFvttZDvWbTPfHlyXtXIXKzmI7nRMrubsagWiNC9pRoIiM_53vsGoeXgCXGwJaVBoe5J27wdtJ8_KYf-XAaM6kTxYmZ9cATaCmIYf4nrgH6yjuYDSgvqcLWP24KGUOvMwdB7adfKcOU_xmNNmlSr-LZSe-hMHHr7EIbfUm4JMWM4c43gVvlvMhDLI6-qEhO1IXZ5jKuFldCwnbmCKn2CjSl56b9syEgw6KC9VrWvX40mcO__gQ_tWfutnzJyYXEw84yA8k4tdj3w1SZh9iQYa8-M8FvUeGHkc9SGlLWLUa5V4MsMZ3pCO6ssbaO4f2GBY8ki2PfWIEtalnn3LCLrPuQjWq1x24raPOnxhKlpJ7J3QkBt0Cgw4YwEkohUTCos23GsA7GGi-5YqFHjJ2KJBmligMoz9SIorTXhtvxJ2GfRZvil7GiQPvgwwn-XewWRzu3PuQ9C93M8AltBrOQ5gOPvmXwRbaQCgI5tA22akP3xRrIcMKXPmBg065eYGnDKvLL-8Nkz7VIzUVJU5xRI4NcCV2q-jYrTJwkLfA-4V?></g></svg>