<svg xmlns="http://www.w3.org/2000/svg" xmlns:xlink="http://www.w3.org/1999/xlink" contentStyleType="text/css" data-diagram-type="DESCRIPTION" height="545px" preserveAspectRatio="none" style="width:2003px;height:545px;background:#FFFFFF;" version="1.1" viewBox="0 0 2003 545" width="2003px" zoomAndPan="magnify"><?plantuml 1.2026.3beta4?><defs/><g><!--cluster L1--><g class="cluster" data-qualified-name="L1" data-source-line="26" id="ent0002"><rect fill="#FFFFFF" height="417" rx="9" ry="9" style="stroke:#64748B;stroke-width:1;" width="240.58" x="7" y="31"/><text fill="#1E293B" font-family="sans-serif" font-size="14" font-weight="700" lengthAdjust="spacing" textLength="58.5088" x="98.0356" y="45.9951">Layer 1</text><text fill="#1E293B" font-family="sans-serif" font-size="14" font-weight="700" lengthAdjust="spacing" textLength="172.6279" x="40.976" y="62.292">Role-based Interfaces</text></g><!--cluster L2--><g class="cluster" data-qualified-name="L2" data-source-line="32" id="ent0006"><rect fill="#FFFFFF" height="473" rx="9" ry="9" style="stroke:#64748B;stroke-width:1;" width="608.8" x="279.58" y="7"/><text fill="#1E293B" font-family="sans-serif" font-size="14" font-weight="700" lengthAdjust="spacing" textLength="58.5088" x="554.7256" y="21.9951">Layer 2</text><text fill="#1E293B" font-family="sans-serif" font-size="14" font-weight="700" lengthAdjust="spacing" textLength="201.8721" x="483.044" y="38.292">Core Application Services</text></g><!--cluster R34--><g class="cluster" data-qualified-name="R34" data-source-line="39" id="ent0011"><rect fill="#FFFFFF" height="336" style="stroke:#FFFFFF;stroke-width:1;" width="1069.2" x="920.38" y="100"/><text fill="#1E293B" font-family="sans-serif" font-size="14" font-style="italic" lengthAdjust="spacing" textLength="37.2832" x="1436.3384" y="114.9951">&#171;col&#187;</text><text fill="#1E293B" font-family="sans-serif" font-size="14" font-weight="700" lengthAdjust="spacing" textLength="4.874" x="1452.543" y="131.292">&#160;</text></g><!--cluster L3--><g class="cluster" data-qualified-name="R34.L3" data-source-line="40" id="ent0012"><rect fill="#FFFFFF" height="196" rx="9" ry="9" style="stroke:#64748B;stroke-width:1;" width="653.46" x="952.38" y="168"/><text fill="#1E293B" font-family="sans-serif" font-size="14" font-weight="700" lengthAdjust="spacing" textLength="58.5088" x="1249.8556" y="182.9951">Layer 3</text><text fill="#1E293B" font-family="sans-serif" font-size="14" font-weight="700" lengthAdjust="spacing" textLength="229.3389" x="1164.4406" y="199.292">Analytics &amp; Monitoring Layer</text></g><!--cluster L4--><g class="cluster" data-qualified-name="R34.L4" data-source-line="44" id="ent0015"><rect fill="#FFFFFF" height="237" rx="9" ry="9" style="stroke:#64748B;stroke-width:1;" width="311.74" x="1645.84" y="167"/><text fill="#1E293B" font-family="sans-serif" font-size="14" font-weight="700" lengthAdjust="spacing" textLength="58.5088" x="1772.4556" y="181.9951">Layer 4</text><text fill="#1E293B" font-family="sans-serif" font-size="14" font-weight="700" lengthAdjust="spacing" textLength="171.8213" x="1715.7994" y="198.292">Persistent Data Layer</text></g><!--entity patient--><g class="entity" data-qualified-name="L1.patient" data-source-line="27" id="ent0003"><rect fill="#E9EEF3" height="93.1875" rx="9" ry="9" style="stroke:#64748B;stroke-width:0.5;" width="193.9063" x="30.34" y="338.41"/><text fill="#1E293B" font-family="sans-serif" font-size="14" lengthAdjust="spacing" textLength="116.5049" x="69.0407" y="361.4051">Patient Interface</text><line style="stroke:#64748B;stroke-width:1;" x1="31.34" x2="223.2463" y1="364.7069" y2="364.7069"/><text fill="#1E293B" font-family="sans-serif" font-size="14" lengthAdjust="spacing" textLength="173.9063" x="40.34" y="381.702">baseline &amp; training tasks</text><text fill="#1E293B" font-family="sans-serif" font-size="14" lengthAdjust="spacing" textLength="113.9209" x="70.3327" y="397.9989">progress/history</text><text fill="#1E293B" font-family="sans-serif" font-size="14" lengthAdjust="spacing" textLength="165.8193" x="44.3835" y="414.2957">prescriptions/messages</text></g><!--entity doctor--><g class="entity" data-qualified-name="L1.doctor" data-source-line="28" id="ent0004"><rect fill="#E9EEF3" height="93.1875" rx="9" ry="9" style="stroke:#64748B;stroke-width:0.5;" width="205.0146" x="24.78" y="210.41"/><text fill="#1E293B" font-family="sans-serif" font-size="14" lengthAdjust="spacing" textLength="92.0254" x="81.2746" y="233.4051">Doctor Portal</text><line style="stroke:#64748B;stroke-width:1;" x1="25.78" x2="228.7946" y1="236.7069" y2="236.7069"/><text fill="#1E293B" font-family="sans-serif" font-size="14" lengthAdjust="spacing" textLength="100.8779" x="76.8484" y="253.702">patient review</text><text fill="#1E293B" font-family="sans-serif" font-size="14" lengthAdjust="spacing" textLength="185.0146" x="34.78" y="269.9989">dashboard &amp; prescriptions</text><text fill="#1E293B" font-family="sans-serif" font-size="14" lengthAdjust="spacing" textLength="151.2861" x="51.6443" y="286.2957">training plans/reports</text></g><!--entity admin--><g class="entity" data-qualified-name="L1.admin" data-source-line="29" id="ent0005"><rect fill="#E9EEF3" height="93.1875" rx="9" ry="9" style="stroke:#64748B;stroke-width:0.5;" width="208.583" x="23" y="82.41"/><text fill="#1E293B" font-family="sans-serif" font-size="14" lengthAdjust="spacing" textLength="90.0361" x="82.2734" y="105.4051">Admin Portal</text><line style="stroke:#64748B;stroke-width:1;" x1="24" x2="230.583" y1="108.7069" y2="108.7069"/><text fill="#1E293B" font-family="sans-serif" font-size="14" lengthAdjust="spacing" textLength="127.8662" x="63.3584" y="125.702">doctor verification</text><text fill="#1E293B" font-family="sans-serif" font-size="14" lengthAdjust="spacing" textLength="188.583" x="33" y="141.9989">governance &amp; notifications</text><text fill="#1E293B" font-family="sans-serif" font-size="14" lengthAdjust="spacing" textLength="86.0303" x="84.2764" y="158.2957">audit/export</text></g><!--entity auth--><g class="entity" data-qualified-name="L2.auth" data-source-line="33" id="ent0007"><rect fill="#DDF3F0" height="93.1875" rx="9" ry="9" style="stroke:#64748B;stroke-width:0.5;" width="226.0078" x="303.58" y="210.41"/><text fill="#1E293B" font-family="sans-serif" font-size="14" lengthAdjust="spacing" textLength="206.0078" x="313.58" y="233.4051">Authentication &amp; Role Access</text><line style="stroke:#64748B;stroke-width:1;" x1="304.58" x2="528.5878" y1="236.7069" y2="236.7069"/><text fill="#1E293B" font-family="sans-serif" font-size="14" lengthAdjust="spacing" textLength="34.1045" x="399.5317" y="253.702">login</text><text fill="#1E293B" font-family="sans-serif" font-size="14" lengthAdjust="spacing" textLength="92.7705" x="370.1987" y="269.9989">authorization</text><text fill="#1E293B" font-family="sans-serif" font-size="14" lengthAdjust="spacing" textLength="80.1104" x="376.5287" y="286.2957">role control</text></g><!--entity tasks--><g class="entity" data-qualified-name="L2.tasks" data-source-line="34" id="ent0008"><rect fill="#DDF3F0" height="93.1875" rx="9" ry="9" style="stroke:#64748B;stroke-width:0.5;" width="261.3906" x="596.29" y="210.41"/><text fill="#1E293B" font-family="sans-serif" font-size="14" lengthAdjust="spacing" textLength="241.3906" x="606.29" y="233.4051">Task, Baseline &amp; Training Services</text><line style="stroke:#64748B;stroke-width:1;" x1="597.29" x2="856.6806" y1="236.7069" y2="236.7069"/><text fill="#1E293B" font-family="sans-serif" font-size="14" lengthAdjust="spacing" textLength="102.8193" x="675.5756" y="253.702">task execution</text><text fill="#1E293B" font-family="sans-serif" font-size="14" lengthAdjust="spacing" textLength="146.0703" x="653.9502" y="269.9989">baseline assessment</text><text fill="#1E293B" font-family="sans-serif" font-size="14" lengthAdjust="spacing" textLength="208.7422" x="622.6142" y="286.2957">training session management</text></g><!--entity clinician--><g class="entity" data-qualified-name="L2.clinician" data-source-line="35" id="ent0009"><rect fill="#DDF3F0" height="109.4844" rx="9" ry="9" style="stroke:#64748B;stroke-width:0.5;" width="212.3975" x="620.79" y="338.26"/><text fill="#1E293B" font-family="sans-serif" font-size="14" lengthAdjust="spacing" textLength="192.3975" x="630.79" y="361.2551">Clinician Workflow Services</text><line style="stroke:#64748B;stroke-width:1;" x1="621.79" x2="832.1875" y1="364.5569" y2="364.5569"/><text fill="#1E293B" font-family="sans-serif" font-size="14" lengthAdjust="spacing" textLength="135.7002" x="659.1386" y="381.552">patient assignment</text><text fill="#1E293B" font-family="sans-serif" font-size="14" lengthAdjust="spacing" textLength="90.8906" x="681.5434" y="397.8489">prescriptions</text><text fill="#1E293B" font-family="sans-serif" font-size="14" lengthAdjust="spacing" textLength="150.4111" x="651.7832" y="414.1457">intervention planning</text><text fill="#1E293B" font-family="sans-serif" font-size="14" lengthAdjust="spacing" textLength="131.0313" x="661.4731" y="430.4426">messaging/reports</text></g><!--entity governance--><g class="entity" data-qualified-name="L2.governance" data-source-line="36" id="ent0010"><rect fill="#DDF3F0" height="109.4844" rx="9" ry="9" style="stroke:#64748B;stroke-width:0.5;" width="274.7891" x="589.59" y="66.26"/><text fill="#1E293B" font-family="sans-serif" font-size="14" lengthAdjust="spacing" textLength="254.7891" x="599.59" y="89.2551">Administrative Governance Services</text><line style="stroke:#64748B;stroke-width:1;" x1="590.59" x2="863.3791" y1="92.5569" y2="92.5569"/><text fill="#1E293B" font-family="sans-serif" font-size="14" lengthAdjust="spacing" textLength="128.7686" x="662.6003" y="109.552">user management</text><text fill="#1E293B" font-family="sans-serif" font-size="14" lengthAdjust="spacing" textLength="153.1934" x="650.3879" y="125.8489">department/oversight</text><text fill="#1E293B" font-family="sans-serif" font-size="14" lengthAdjust="spacing" textLength="86.0234" x="683.9728" y="142.1457">notifications</text><text fill="#1E293B" font-family="sans-serif" font-size="14" lengthAdjust="spacing" textLength="93.9189" x="680.0251" y="158.4426">audit support</text></g><!--entity biomarkers--><g class="entity" data-qualified-name="R34.L3.biomarkers" data-source-line="41" id="ent0013"><rect fill="#F7ECD2" height="93.1875" rx="9" ry="9" style="stroke:#64748B;stroke-width:0.5;" width="282.4316" x="976.38" y="246.41"/><text fill="#1E293B" font-family="sans-serif" font-size="14" lengthAdjust="spacing" textLength="262.4316" x="986.38" y="269.4051">Session Context &amp; Digital Biomarkers</text><line style="stroke:#64748B;stroke-width:1;" x1="977.38" x2="1257.8116" y1="272.7069" y2="272.7069"/><text fill="#1E293B" font-family="sans-serif" font-size="14" lengthAdjust="spacing" textLength="212.9941" x="1011.0988" y="289.702">fatigue / sleep / stress context</text><text fill="#1E293B" font-family="sans-serif" font-size="14" lengthAdjust="spacing" textLength="193.6211" x="1020.7853" y="305.9989">response speed &amp; accuracy</text><text fill="#1E293B" font-family="sans-serif" font-size="14" lengthAdjust="spacing" textLength="142.7891" x="1046.2013" y="322.2957">variability indicators</text></g><!--entity trends--><g class="entity" data-qualified-name="R34.L3.trends" data-source-line="42" id="ent0014"><rect fill="#F7ECD2" height="93.1875" rx="9" ry="9" style="stroke:#64748B;stroke-width:0.5;" width="263.0244" x="1318.81" y="246.41"/><text fill="#1E293B" font-family="sans-serif" font-size="14" lengthAdjust="spacing" textLength="243.0244" x="1328.81" y="269.4051">Longitudinal Analytics &amp; Reporting</text><line style="stroke:#64748B;stroke-width:1;" x1="1319.81" x2="1580.8344" y1="272.7069" y2="272.7069"/><text fill="#1E293B" font-family="sans-serif" font-size="14" lengthAdjust="spacing" textLength="98.752" x="1400.9462" y="289.702">trend analysis</text><text fill="#1E293B" font-family="sans-serif" font-size="14" lengthAdjust="spacing" textLength="143.0762" x="1378.7841" y="305.9989">progress summaries</text><text fill="#1E293B" font-family="sans-serif" font-size="14" lengthAdjust="spacing" textLength="133.0957" x="1383.7744" y="322.2957">risk alerts / reports</text></g><!--entity db--><g class="entity" data-qualified-name="R34.L4.db" data-source-line="45" id="ent0016"><path d="M1669.84,255.61 C1669.84,245.61 1801.7145,245.61 1801.7145,245.61 C1801.7145,245.61 1933.589,245.61 1933.589,255.61 L1933.589,370.3913 C1933.589,380.3913 1801.7145,380.3913 1801.7145,380.3913 C1801.7145,380.3913 1669.84,380.3913 1669.84,370.3913 L1669.84,255.61" fill="#EEF2F7" style="stroke:#181818;stroke-width:0.5;"/><path d="M1669.84,255.61 C1669.84,265.61 1801.7145,265.61 1801.7145,265.61 C1801.7145,265.61 1933.589,265.61 1933.589,255.61" fill="none" style="stroke:#181818;stroke-width:0.5;"/><text fill="#000000" font-family="sans-serif" font-size="14" lengthAdjust="spacing" textLength="243.749" x="1679.84" y="282.6051">PostgreSQL / SQLModel Data Store</text><path d="M1669.84,280.9069 C1669.84,290.9069 1801.7145,290.9069 1801.7145,290.9069 C1801.7145,290.9069 1933.589,290.9069 1933.589,280.9069" fill="none" style="stroke:#181818;stroke-width:1;"/><text fill="#000000" font-family="sans-serif" font-size="14" lengthAdjust="spacing" textLength="91.7656" x="1755.8317" y="302.902">users &amp; roles</text><text fill="#000000" font-family="sans-serif" font-size="14" lengthAdjust="spacing" textLength="115.6572" x="1743.8859" y="319.1989">baseline records</text><text fill="#000000" font-family="sans-serif" font-size="14" lengthAdjust="spacing" textLength="117.8037" x="1742.8127" y="335.4957">training sessions</text><text fill="#000000" font-family="sans-serif" font-size="14" lengthAdjust="spacing" textLength="109.2861" x="1747.0714" y="351.7926">session context</text><text fill="#000000" font-family="sans-serif" font-size="14" lengthAdjust="spacing" textLength="154.7383" x="1724.3454" y="368.0895">plans / reports / alerts</text></g><!--link L3 to L4--><!--link patient to auth--><g class="link" data-entity-1="ent0003" data-entity-2="ent0007" data-link-type="dependency" data-source-line="50" id="lnk18"><path d="M224.56,344.02 C235.65,337.2 246.29,329.53 255.58,321 C260.58,316.41 258.27,312.22 263.58,308 C275.46,298.56 283.6871,293.2668 297.9071,286.9468" fill="none" id="patient-to-auth" style="stroke:#5F6B7A;stroke-width:1.3;"/><polygon fill="#5F6B7A" points="303.39,284.51,293.5411,284.51,298.8209,286.5407,296.7902,291.8205,303.39,284.51" style="stroke:#5F6B7A;stroke-width:1.3;"/></g><!--link doctor to auth--><g class="link" data-entity-1="ent0004" data-entity-2="ent0007" data-link-type="dependency" data-source-line="51" id="lnk19"><path d="M229.99,257 C253.71,257 273.12,257 297.28,257" fill="none" id="doctor-to-auth" style="stroke:#5F6B7A;stroke-width:1.3;"/><polygon fill="#5F6B7A" points="303.28,257,294.28,253,298.28,257,294.28,261,303.28,257" style="stroke:#5F6B7A;stroke-width:1.3;"/></g><!--link admin to auth--><g class="link" data-entity-1="ent0005" data-entity-2="ent0007" data-link-type="dependency" data-source-line="52" id="lnk20"><path d="M232.01,175.21 C257.41,186.53 279.1292,196.2086 304.6092,207.5586" fill="none" id="admin-to-auth" style="stroke:#5F6B7A;stroke-width:1.3;"/><polygon fill="#5F6B7A" points="310.09,210,303.4964,202.684,305.5226,207.9655,300.2411,209.9918,310.09,210" style="stroke:#5F6B7A;stroke-width:1.3;"/></g><!--link auth to tasks--><g class="link" data-entity-1="ent0007" data-entity-2="ent0008" data-link-type="dependency" data-source-line="53" id="lnk21"><path d="M529.8,257 C551.24,257 567.85,257 589.8,257" fill="none" id="auth-to-tasks" style="stroke:#5F6B7A;stroke-width:1.3;"/><polygon fill="#5F6B7A" points="595.8,257,586.8,253,590.8,257,586.8,261,595.8,257" style="stroke:#5F6B7A;stroke-width:1.3;"/></g><!--link auth to clinician--><g class="link" data-entity-1="ent0007" data-entity-2="ent0009" data-link-type="dependency" data-source-line="54" id="lnk22"><path d="M524.15,303.99 C555.32,317.74 583.8698,330.3297 614.9698,344.0397" fill="none" id="auth-to-clinician" style="stroke:#5F6B7A;stroke-width:1.3;"/><polygon fill="#5F6B7A" points="620.46,346.46,613.8382,339.1695,615.8848,344.4431,610.6112,346.4897,620.46,346.46" style="stroke:#5F6B7A;stroke-width:1.3;"/></g><!--link auth to governance--><g class="link" data-entity-1="ent0007" data-entity-2="ent0010" data-link-type="dependency" data-source-line="55" id="lnk23"><path d="M524.15,210.01 C548.87,199.1 569.9202,189.8212 595.3602,178.6012" fill="none" id="auth-to-governance" style="stroke:#5F6B7A;stroke-width:1.3;"/><polygon fill="#5F6B7A" points="600.85,176.18,591.0012,176.1519,596.2752,178.1977,594.2295,183.4717,600.85,176.18" style="stroke:#5F6B7A;stroke-width:1.3;"/></g><!--link tasks to biomarkers--><g class="link" data-entity-1="ent0008" data-entity-2="ent0013" data-link-type="dependency" data-source-line="56" id="lnk24"><path d="M857.93,269.04 C895.88,272.55 931.5455,275.8572 970.1255,279.4272" fill="none" id="tasks-to-biomarkers" style="stroke:#5F6B7A;stroke-width:1.3;"/><polygon fill="#5F6B7A" points="976.1,279.98,967.5069,275.1677,971.1213,279.5193,966.7697,283.1337,976.1,279.98" style="stroke:#5F6B7A;stroke-width:1.3;"/></g><!--link clinician to trends--><g class="link" data-entity-1="ent0009" data-entity-2="ent0014" data-link-type="dependency" data-source-line="57" id="lnk25"><path d="M833.52,393.76 C941.4,392.69 1113.28,385.88 1258.81,357 C1280.29,352.74 1296.9471,348.4901 1318.5171,341.8301" fill="none" id="clinician-to-trends" style="stroke:#5F6B7A;stroke-width:1.3;"/><polygon fill="#5F6B7A" points="1324.25,340.06,1314.4705,338.8932,1319.4725,341.5351,1316.8307,346.5371,1324.25,340.06" style="stroke:#5F6B7A;stroke-width:1.3;"/></g><!--link biomarkers to trends--><g class="link" data-entity-1="ent0013" data-entity-2="ent0014" data-link-type="dependency" data-source-line="58" id="lnk26"><path d="M1258.85,293 C1278.57,293 1292.78,293 1312.31,293" fill="none" id="biomarkers-to-trends" style="stroke:#5F6B7A;stroke-width:1.3;"/><polygon fill="#5F6B7A" points="1318.31,293,1309.31,289,1313.31,293,1309.31,297,1318.31,293" style="stroke:#5F6B7A;stroke-width:1.3;"/></g><!--link L2 to db--><g class="link" data-entity-1="ent0006" data-entity-2="ent0016" data-link-type="dependency" data-source-line="59" id="lnk27"><path d="M889.2507,465.2055 C890.9408,465.0764 892.6281,464.9458 894.3123,464.8135 C897.6807,464.5489 901.037,464.2778 904.38,464 C1225.73,437.29 1305.34,417.74 1621.84,356 C1637.35,352.97 1647.7072,350.8309 1663.7472,347.2109" fill="none" id="L2-to-db" style="stroke:#5F6B7A;stroke-width:1.3;"/><polygon fill="#5F6B7A" points="1669.6,345.89,1659.9402,343.9695,1664.7227,346.9907,1661.7014,351.7732,1669.6,345.89" style="stroke:#5F6B7A;stroke-width:1.3;"/></g><!--link trends to db--><g class="link" data-entity-1="ent0014" data-entity-2="ent0016" data-link-type="dependency" data-source-line="60" id="lnk28"><path d="M1581.92,300.48 C1610.51,302.11 1634.7897,303.5088 1663.4097,305.1388" fill="none" id="trends-to-db" style="stroke:#5F6B7A;stroke-width:1.3;"/><polygon fill="#5F6B7A" points="1669.4,305.48,1660.642,300.9747,1664.4081,305.1957,1660.1871,308.9618,1669.4,305.48" style="stroke:#5F6B7A;stroke-width:1.3;"/></g><g class="legend" data-source-line="62"><rect fill="#F8FAFC" height="26.2969" rx="7.5" ry="7.5" style="stroke:#CBD5E1;stroke-width:1;" width="462.4912" x="767.0444" y="500"/><text fill="#334155" font-family="sans-serif" font-size="14" lengthAdjust="spacing" textLength="452.4912" x="772.0444" y="517.9951">Svelte frontend | FastAPI backend | SQLModel ORM | PostgreSQL</text></g><?plantuml-src XLRRRjiu47tNLn0DqATwNLjEam150FcYea22pTe1zc7L1reQouHfKY1fEzxT_llEYBewNZG1R953pZd3SpYoX8rZJZCZygrZcJ2GEg5LO7T25TpmFLlpT9SRVL3PJ4jjs6ah77JYTiipVH8gPnikRJUImOOVf7k5DnT9aQizACTI_03JMHKPeqy-zSrj_6Lw5rq6NxSYtIcmber-2pl10fdn75RkB84HSQvo2UyNJBN9m5GG3vCedDvVMVIBCYNae3BsJy3OvTAR-3wEuXb5kaYpwVnsCSBPM2jNpONXP7Hx6_pi96w8-zpT35ycTvFxQJ_3Q35-26bkwGaO1OQDxg-d_FerrVBnyNtckFoxMaiTwUR_ZEc3bkY79tucr4GjjOJ1cbl8s7VITSDJi1yOj-nfLESgqJkRNxWJv8HcGw86WqHH5YaKi8_C6IuKESfnkxE9AepE3Ue_t0hhj3dJ3DZKY8AyQeTxZA647hYeqjyi7XQBEEnZptMA2TYBDevBZrklDt0KS4fKnkrshRd9a4WF9b4Dhq9oX3LGO1wFcld4Lq6ZR2zK3xDQVGGZDYBbb3vHkSQnuYgb8r3QDI54veTCk26y4M29nykSDTmrTSQ9GlM0HKKXgqHi1UOe6eN6_wTGT71RF99wrqT6ChCenPtM5o1rBXJHSbjjnDzL1OQMfUXLVF0iCSvkvlCuZ3_t8LvHsK_elaRpr_fiQuuUY1p0u0tIWuTeNCAjHJRKKZgwq1GntdE5Vg1WIQEqqNKUCqmcKi4L-rERtKRgqmM1sXw8LxMm2_SbY8n6FjA18JHPWxWaohiI7tj6IHl0gtnAhw3B3S8UWNrhFT6dTR0eSLicMWhmxZjw7j8UI_qyKTTinEoXQ7pKCLtDfsyc_A-x22vVXfDBitYtXOcA59TdD8r5DP-r4kXmqgICUyE5FSFrigmgvMRe7dnVO8gvo0LU63OLUi_D3alobM-mcFm0RCYi12Zesr5pA8s7Mz66O0ii5vWj0EWQypGz69vYtpXo8_XQIE7EJAYCJaORByowmK6MTulPV7p9yKahf8H7Y8MoRhNBKjzIzDApXjuKd1POqMbVUF1xX12aeH7eQou1RO4LT0rIxkvo-7djl2U9UY6LhIDpphdZtOEUN1nqXd6wETXyjNL8PlN74yBYvxFEGFhzApmAQDr5XT65jfrBXpJmBMBVtpYSgkzU8qFP9DlYyCdNw_lb6flN8Xx7TrM5Q8x1NrkHPQ1-uEy9DNZ4CiYBzGKSu0praw1gditOjy9sI3s7HkMjRuVDnMkdMlC7laNGPEk3eBshPRvIcA3ZayuiDbCQPUkWqgyQ1TNlXhLsJk-3rH6a0xOnT4Wu_I-BkNNHo_VoPvQVQLJvVVcCmrQn0EC-tNy0?></g></svg>